<svg width="51" height="51" viewBox="0 0 51 51" fill="none" xmlns="http://www.w3.org/2000/svg">
<g clip-path="url(#clip0_155_957)">
<path d="M22.239 19.5684H29.4167V13.2207L25.8035 7.45898L22.239 13.2207V19.5684ZM19.3093 14.2949H0.949951V50.7695H15.0613V31.9707L19.3093 25.1348V14.2949ZM24.3386 4.28516V0.769531H5.97925V5.11523L2.12183 11.3652H19.9441L24.3386 4.28516ZM35.7644 28.3574L32.9812 32.8008V50.7695H38.5476V32.8008L35.7644 28.3574ZM17.991 33.8262H30.0515V50.7695H17.991V33.8262ZM34.2996 22.498H22.239V25.9648L19.1628 30.8965H30.7351L34.2996 25.1348V22.498Z" fill="white"/>
</g>
<defs>
<clipPath id="clip0_155_957">
<rect width="50" height="50" fill="white" transform="matrix(1 0 0 -1 0.949951 50.7695)"/>
</clipPath>
</defs>
</svg>
