<svg width="61" height="61" viewBox="0 0 61 61" fill="none" xmlns="http://www.w3.org/2000/svg">
<rect x="0.97998" y="0.160156" width="60" height="60" rx="10" fill="#C5CE38"/>
<g clip-path="url(#clip0_155_975)">
<path d="M33.1479 27.9922L6.13623 1.03906C5.55029 0.453125 4.8374 0.160156 3.99756 0.160156C3.15771 0.160156 2.44482 0.453125 1.85889 1.03906C1.27295 1.625 0.97998 2.33789 0.97998 3.17773C0.97998 4.01758 1.27295 4.73047 1.85889 5.31641L26.7026 30.1602L1.85889 55.0039C1.27295 55.5898 0.97998 56.3027 0.97998 57.1426C0.97998 57.9824 1.27295 58.6953 1.85889 59.2812C2.44482 59.8672 3.15771 60.1602 3.99756 60.1602C4.8374 60.1602 5.55029 59.8672 6.13623 59.2812L33.1479 32.3281C33.7339 31.7422 34.0269 31.0195 34.0269 30.1602C34.0269 29.3008 33.7339 28.5781 33.1479 27.9922Z" fill="white"/>
</g>
<defs>
<clipPath id="clip0_155_975">
<rect width="60" height="60" fill="white" transform="matrix(1 0 0 -1 0.97998 60.1602)"/>
</clipPath>
</defs>
</svg>
