<svg width="25" height="25" viewBox="0 0 25 25" fill="none" xmlns="http://www.w3.org/2000/svg">
<path d="M12.2366 22.0682C10.0199 22.0682 8.13224 21.3016 6.57357 19.7682C5.01491 18.2349 4.23591 16.3682 4.23657 14.1682C4.23657 13.1182 4.44091 12.1142 4.84957 11.1562C5.25824 10.1982 5.83724 9.35224 6.58657 8.61824L12.2366 3.06824L17.8866 8.61824C18.6366 9.35157 19.2159 10.1976 19.6246 11.1562C20.0332 12.1149 20.2372 13.1189 20.2366 14.1682C20.2366 16.3682 19.4576 18.2349 17.8996 19.7682C16.3416 21.3016 14.4539 22.0682 12.2366 22.0682ZM6.23657 14.1682H18.2366C18.2366 13.3849 18.0866 12.6392 17.7866 11.9312C17.4866 11.2232 17.0532 10.6022 16.4866 10.0682L12.2366 5.86824L7.98657 10.0682C7.41991 10.6016 6.98657 11.2226 6.68657 11.9312C6.38657 12.6399 6.23657 13.3856 6.23657 14.1682Z" fill="#559C2A"/>
</svg>
