<svg width="51" height="51" viewBox="0 0 51 51" fill="none" xmlns="http://www.w3.org/2000/svg">
<g clip-path="url(#clip0_155_946)">
<path d="M16.0579 9.46094L18.1086 7.41016L24.2122 13.4648C24.3749 13.6602 24.5458 13.8555 24.7249 14.0508C24.9039 14.2461 25.0748 14.4414 25.2375 14.6367C26.2141 13.2044 26.621 11.6094 26.4583 9.85156C26.2955 8.09375 25.5956 6.59636 24.3586 5.35938C22.8938 3.86198 21.2092 2.72266 19.3049 1.94141C17.4006 1.16016 15.4068 0.769531 13.3235 0.769531H9.41724V4.67578C9.41724 6.75911 9.80786 8.75293 10.5891 10.6572C11.3704 12.5615 12.5097 14.2461 14.0071 15.7109C15.2441 16.9479 16.7252 17.6478 18.4504 17.8105C20.1757 17.9733 21.7545 17.599 23.1868 16.6875C23.024 16.4922 22.8531 16.2969 22.6741 16.1016C22.495 15.9062 22.3079 15.7109 22.1125 15.5156L16.0579 9.46094ZM39.886 7.41016L41.9368 9.46094L35.8821 15.5156C35.6868 15.7109 35.4996 15.9062 35.3206 16.1016C35.1415 16.2969 34.9706 16.4922 34.8079 16.6875C36.2402 17.599 37.8189 17.9733 39.5442 17.8105C41.2695 17.6478 42.7506 16.9479 43.9875 15.7109C45.4849 14.2461 46.6243 12.5615 47.4055 10.6572C48.1868 8.75293 48.5774 6.75911 48.5774 4.67578V0.769531H44.6711C42.5878 0.769531 40.594 1.16016 38.6897 1.94141C36.7854 2.72266 35.1008 3.86198 33.636 5.35938C32.399 6.59636 31.6991 8.09375 31.5364 9.85156C31.3736 11.6094 31.7805 13.2044 32.7571 14.6367C32.9198 14.4414 33.0907 14.2461 33.2698 14.0508C33.4488 13.8555 33.6197 13.6602 33.7825 13.4648L39.886 7.41016ZM33.636 15.7109C33.4732 15.5482 33.3186 15.3773 33.1721 15.1982C33.0256 15.0192 32.8873 14.832 32.7571 14.6367C31.9433 15.5482 31.2271 16.5247 30.6086 17.5664C29.9902 18.6081 29.453 19.6986 28.9973 20.8379C28.5741 19.6986 28.0452 18.6081 27.4104 17.5664C26.7756 16.5247 26.0514 15.5482 25.2375 14.6367C25.1073 14.832 24.969 15.0192 24.8225 15.1982C24.676 15.3773 24.5214 15.5482 24.3586 15.7109C24.1633 15.9062 23.968 16.0771 23.7727 16.2236C23.5774 16.3701 23.3821 16.5247 23.1868 16.6875C24.4237 18.1849 25.4003 19.8695 26.1165 21.7412C26.8326 23.613 27.2721 25.5254 27.4348 27.4785C26.2629 27.6087 25.1399 27.8936 24.0657 28.333C22.9915 28.7725 21.9986 29.334 21.0872 30.0176C21.5103 30.2454 21.9254 30.4977 22.3323 30.7744C22.7392 31.0511 23.1705 31.3359 23.6262 31.6289L28.9973 31.7266C30.983 31.7266 32.8222 32.2718 34.5149 33.3623C36.2076 34.4528 37.4771 35.9095 38.3235 37.7324V37.7812C38.8443 37.4883 39.3489 37.1709 39.8372 36.8291C40.3254 36.4873 40.7974 36.1374 41.2532 35.7793C40.4068 33.5332 39.0315 31.6615 37.1272 30.1641C35.2229 28.6667 33.0338 27.7715 30.5598 27.4785C30.7226 25.5254 31.162 23.613 31.8782 21.7412C32.5943 19.8695 33.5709 18.1849 34.8079 16.6875C34.6125 16.5247 34.4172 16.3701 34.2219 16.2236C34.0266 16.0771 33.8313 15.9062 33.636 15.7109ZM18.2551 49.5488C19.5898 49.8743 20.9407 50.1592 22.3079 50.4033C23.675 50.6475 25.2864 50.7695 27.1418 50.7695C29.6158 50.7695 31.7968 50.5091 33.6848 49.9883C35.5403 49.4349 37.3388 48.6781 39.0803 47.7178C40.8219 46.7575 42.6204 45.61 44.4758 44.2754C46.3313 42.9082 48.496 41.4271 50.97 39.832C50.9049 39.7669 50.8723 39.7262 50.8723 39.71C50.8723 39.6937 50.6282 39.3112 50.1399 38.5625C49.3912 37.4557 48.3333 36.8535 46.9661 36.7559C45.5989 36.6582 44.3945 37.0326 43.3528 37.8789C42.2786 38.7253 41.1392 39.5065 39.9348 40.2227C38.7304 40.9062 37.4853 41.4922 36.1995 41.9805C34.9137 42.4688 33.5872 42.8431 32.22 43.1035C30.8853 43.3639 29.5181 43.4779 28.1184 43.4453C25.8398 43.4453 23.9273 43.2012 22.3811 42.7129C20.8349 42.2246 19.9641 41.9479 19.7688 41.8828L20.6477 39.1484C20.9081 39.2135 21.6812 39.4495 22.967 39.8564C24.2528 40.2633 25.9049 40.4831 27.9231 40.5156C29.2577 40.5807 30.5761 40.4668 31.8782 40.1738C33.1803 39.8809 34.4335 39.474 35.6379 38.9531C35.052 37.6836 34.165 36.6501 32.9768 35.8525C31.7887 35.055 30.4622 34.6562 28.9973 34.6562H23.8215C23.496 34.6562 23.1705 34.6074 22.845 34.5098C22.5194 34.4121 22.2265 34.2656 21.9661 34.0703C18.776 31.9219 16.3997 30.75 14.8372 30.5547C13.2747 30.3594 11.0123 31.2383 8.05005 33.1914H0.969971V47.8398H2.43481C6.53638 47.8398 9.75903 48.027 12.1028 48.4014C14.4465 48.7757 16.4973 49.1582 18.2551 49.5488Z" fill="white"/>
</g>
<defs>
<clipPath id="clip0_155_946">
<rect width="50" height="50" fill="white" transform="matrix(1 0 0 -1 0.969971 50.7695)"/>
</clipPath>
</defs>
</svg>
