<svg width="25" height="24" viewBox="0 0 25 24" fill="none" xmlns="http://www.w3.org/2000/svg">
<g clip-path="url(#clip0_155_1250)">
<path d="M24.4491 22.7812L18.6132 16.9453C19.3944 16.0391 20.0077 15.0156 20.453 13.875C20.8983 12.7344 21.121 11.5234 21.121 10.2422C21.121 8.82031 20.8553 7.49219 20.3241 6.25781C19.7928 5.00781 19.0624 3.92188 18.1327 3C17.203 2.07812 16.1132 1.34375 14.8632 0.796875C13.6288 0.265625 12.3085 0 10.9022 0C9.48035 0 8.15222 0.265625 6.91785 0.796875C5.66785 1.34375 4.58191 2.07812 3.66003 3C2.73816 3.92188 2.00378 5.00781 1.45691 6.25781C0.925659 7.49219 0.660034 8.82031 0.660034 10.2422C0.660034 11.6484 0.925659 12.9688 1.45691 14.2031C2.00378 15.4531 2.73816 16.5391 3.66003 17.4609C4.58191 18.3828 5.66785 19.1172 6.91785 19.6641C8.15222 20.1953 9.48035 20.4609 10.9022 20.4609C12.1835 20.4609 13.3944 20.2383 14.535 19.793C15.6757 19.3477 16.6991 18.7344 17.6053 17.9531L23.4413 23.7891C23.5038 23.8516 23.5819 23.9023 23.6757 23.9414C23.7694 23.9805 23.8553 24 23.9335 24C24.0272 24 24.121 23.9844 24.2147 23.9531C24.3085 23.9219 24.3866 23.8672 24.4491 23.7891C24.5897 23.6484 24.66 23.4805 24.66 23.2852C24.66 23.0898 24.5897 22.9219 24.4491 22.7812ZM2.08972 10.2422C2.08972 9.02344 2.3241 7.88281 2.79285 6.82031C3.24597 5.74219 3.87097 4.80469 4.66785 4.00781C5.46472 3.21094 6.40222 2.58594 7.48035 2.13281C8.54285 1.66406 9.68347 1.42969 10.9022 1.42969C12.1053 1.42969 13.246 1.66406 14.3241 2.13281C15.3866 2.58594 16.3163 3.21094 17.1132 4.00781C17.91 4.80469 18.535 5.74219 18.9882 6.82031C19.4569 7.88281 19.6913 9.02344 19.6913 10.2422C19.6913 11.4453 19.4569 12.5859 18.9882 13.6641C18.535 14.7266 17.91 15.6562 17.1132 16.4531C16.3163 17.25 15.3866 17.8828 14.3241 18.3516C13.246 18.8047 12.1053 19.0312 10.9022 19.0312C9.68347 19.0312 8.54285 18.8047 7.48035 18.3516C6.40222 17.8828 5.46472 17.25 4.66785 16.4531C3.87097 15.6562 3.24597 14.7266 2.79285 13.6641C2.3241 12.5859 2.08972 11.4453 2.08972 10.2422Z" fill="white"/>
</g>
<defs>
<clipPath id="clip0_155_1250">
<rect width="24" height="24" fill="white" transform="matrix(1 0 0 -1 0.660034 24)"/>
</clipPath>
</defs>
</svg>
