<svg width="51" height="51" viewBox="0 0 51 51" fill="none" xmlns="http://www.w3.org/2000/svg">
<rect x="0.97998" y="0.880371" width="50" height="50" rx="10" fill="#4BAF47"/>
<path d="M38.48 30.3237C40.9539 30.3237 43.0617 31.1945 44.8032 32.936C46.5448 34.6776 47.4155 36.7853 47.4155 39.2593C47.4155 41.7332 46.5448 43.841 44.8032 45.5825C43.0617 47.3241 40.9539 48.1948 38.48 48.1948C36.006 48.1948 33.8983 47.3241 32.1567 45.5825C30.4152 43.841 29.5444 41.7332 29.5444 39.2593C29.5444 39.1291 29.5526 38.9826 29.5688 38.8198C29.5851 38.6571 29.5933 38.4943 29.5933 38.3315L19.5347 33.3022C18.7534 34.0509 17.842 34.6369 16.8003 35.0601C15.7586 35.4832 14.6519 35.6948 13.48 35.6948C11.006 35.6948 8.89827 34.8241 7.15674 33.0825C5.4152 31.341 4.54443 29.2332 4.54443 26.7593C4.54443 24.2853 5.4152 22.1776 7.15674 20.436C8.89827 18.6945 11.006 17.8237 13.48 17.8237C14.6519 17.8237 15.7586 18.0435 16.8003 18.4829C17.842 18.9224 18.7534 19.5164 19.5347 20.2651L29.5933 15.2358C29.5933 15.0731 29.5851 14.9103 29.5688 14.7476C29.5526 14.5848 29.5444 14.422 29.5444 14.2593C29.5444 11.7853 30.4152 9.67757 32.1567 7.93604C33.8983 6.1945 36.006 5.32373 38.48 5.32373C40.9539 5.32373 43.0617 6.1945 44.8032 7.93604C46.5448 9.67757 47.4155 11.7853 47.4155 14.2593C47.4155 16.7332 46.5448 18.841 44.8032 20.5825C43.0617 22.3241 40.9539 23.1948 38.48 23.1948C37.3081 23.1948 36.2013 22.9832 35.1597 22.5601C34.118 22.1369 33.1903 21.5509 32.3765 20.8022L22.3667 25.8315C22.3667 25.9943 22.3748 26.1571 22.3911 26.3198C22.4074 26.4826 22.4155 26.6291 22.4155 26.7593C22.4155 26.922 22.4074 27.0848 22.3911 27.2476C22.3748 27.4103 22.3667 27.5731 22.3667 27.7358L32.3765 32.7651C33.1903 32.0164 34.118 31.4224 35.1597 30.9829C36.2013 30.5435 37.3081 30.3237 38.48 30.3237Z" fill="white"/>
</svg>
