<svg width="25" height="25" viewBox="0 0 25 25" fill="none" xmlns="http://www.w3.org/2000/svg">
<path d="M15.5879 13.5682V5.56824C15.5879 4.77259 15.2718 4.00953 14.7092 3.44692C14.1466 2.88431 13.3835 2.56824 12.5879 2.56824C11.7922 2.56824 11.0292 2.88431 10.4666 3.44692C9.90396 4.00953 9.58789 4.77259 9.58789 5.56824V13.5682C8.74836 14.1979 8.12822 15.0757 7.81532 16.0774C7.50242 17.0791 7.51262 18.1538 7.84447 19.1494C8.17633 20.1449 8.81301 21.0108 9.66434 21.6244C10.5157 22.2381 11.5385 22.5682 12.5879 22.5682C13.6373 22.5682 14.6601 22.2381 15.5114 21.6244C16.3628 21.0108 16.9995 20.1449 17.3313 19.1494C17.6632 18.1538 17.6734 17.0791 17.3605 16.0774C17.0476 15.0757 16.4274 14.1979 15.5879 13.5682ZM12.5879 4.56824C12.8531 4.56824 13.1075 4.67359 13.295 4.86113C13.4825 5.04867 13.5879 5.30302 13.5879 5.56824V8.56824H11.5879V5.56824C11.5879 5.30302 11.6932 5.04867 11.8808 4.86113C12.0683 4.67359 12.3227 4.56824 12.5879 4.56824Z" fill="#EEC044"/>
</svg>
