<svg width="51" height="51" viewBox="0 0 51 51" fill="none" xmlns="http://www.w3.org/2000/svg">
<g clip-path="url(#clip0_155_935)">
<path d="M15.4331 31.5801C14.8797 31.5801 14.4159 31.7673 14.0415 32.1416C13.6672 32.516 13.48 32.9798 13.48 33.5332C13.48 34.0866 13.6672 34.5505 14.0415 34.9248C14.4159 35.2992 14.8797 35.4863 15.4331 35.4863C15.9865 35.4863 16.4504 35.2992 16.8247 34.9248C17.1991 34.5505 17.3862 34.0866 17.3862 33.5332C17.3862 32.9798 17.1991 32.516 16.8247 32.1416C16.4504 31.7673 15.9865 31.5801 15.4331 31.5801ZM15.4331 19.0801C13.4474 19.0801 11.5757 19.4544 9.81787 20.2031C8.06006 20.9844 6.53011 22.026 5.22803 23.3281C3.92594 24.6302 2.88428 26.1602 2.10303 27.918C1.35433 29.6758 0.97998 31.5475 0.97998 33.5332C0.97998 35.5189 1.35433 37.3906 2.10303 39.1484C2.88428 40.9062 3.92594 42.4362 5.22803 43.7383C6.53011 45.0404 8.06006 46.082 9.81787 46.8633C11.5757 47.612 13.4474 47.9863 15.4331 47.9863C17.4188 47.9863 19.2905 47.612 21.0483 46.8633C22.8062 46.082 24.3361 45.0404 25.6382 43.7383C26.9403 42.4362 27.9819 40.9062 28.7632 39.1484C29.5119 37.3906 29.8862 35.5189 29.8862 33.5332C29.8862 31.5475 29.5119 29.6758 28.7632 27.918C27.9819 26.1602 26.9403 24.6302 25.6382 23.3281C24.3361 22.026 22.8062 20.9844 21.0483 20.2031C19.2905 19.4544 17.4188 19.0801 15.4331 19.0801ZM15.4331 38.416C14.0985 38.416 12.951 37.9359 11.9907 36.9756C11.0304 36.0153 10.5503 34.8678 10.5503 33.5332C10.5503 32.1986 11.0304 31.0511 11.9907 30.0908C12.951 29.1305 14.0985 28.6504 15.4331 28.6504C16.7677 28.6504 17.9152 29.1305 18.8755 30.0908C19.8358 31.0511 20.3159 32.1986 20.3159 33.5332C20.3159 34.8678 19.8358 36.0153 18.8755 36.9756C17.9152 37.9359 16.7677 38.416 15.4331 38.416ZM33.5483 18.3477L29.9351 6.48242H32.1812C32.6043 6.48242 32.9543 6.33594 33.231 6.04297C33.5076 5.75 33.646 5.4082 33.646 5.01758C33.646 4.62695 33.5076 4.28516 33.231 3.99219C32.9543 3.69922 32.6043 3.55273 32.1812 3.55273H21.0972V17.0781C21.5854 17.2734 22.0575 17.4688 22.5132 17.6641C22.9689 17.8594 23.4246 18.0872 23.8804 18.3477H33.5483ZM18.1675 16.3457V3.55273H10.2573C9.96436 3.55273 9.6958 3.64225 9.45166 3.82129C9.20752 4.00032 9.02034 4.22005 8.89014 4.48047C8.85758 4.54557 8.83317 4.62695 8.81689 4.72461C8.80062 4.82227 8.79248 4.90364 8.79248 4.96875C8.79248 5.0013 8.79248 5.01758 8.79248 5.01758V17.4688C9.83415 17.0456 10.9084 16.7201 12.0151 16.4922C13.1219 16.2643 14.2612 16.1504 15.4331 16.1504C15.8888 16.1504 16.3446 16.1667 16.8003 16.1992C17.256 16.2318 17.7118 16.2806 18.1675 16.3457ZM50.98 41.7363C50.98 43.4616 50.3696 44.9346 49.1489 46.1553C47.9282 47.376 46.4552 47.9863 44.73 47.9863C43.0047 47.9863 41.5399 47.376 40.3354 46.1553C39.131 44.9346 38.5288 43.4616 38.5288 41.7363C38.5288 40.0111 39.131 38.5462 40.3354 37.3418C41.5399 36.1374 43.0047 35.5352 44.73 35.5352C46.4552 35.5352 47.9282 36.1374 49.1489 37.3418C50.3696 38.5462 50.98 40.0111 50.98 41.7363ZM45.0229 26.209H48.1479C47.7899 25.1348 47.2039 24.1908 46.3901 23.377C45.5763 22.5632 44.6323 21.9772 43.5581 21.6191V24.7441C43.5581 25.1348 43.7046 25.4766 43.9976 25.7695C44.2905 26.0625 44.6323 26.209 45.0229 26.209ZM48.5386 33.4355V29.1387H45.0229C43.8185 29.1387 42.785 28.7074 41.9224 27.8447C41.0597 26.9821 40.6284 25.9486 40.6284 24.7441V21.3262C40.6284 21.2936 40.6284 21.2692 40.6284 21.2529C40.6284 21.2367 40.6284 21.2285 40.6284 21.2285H27.689C29.284 22.791 30.5373 24.6302 31.4487 26.7461C32.3602 28.862 32.8159 31.1243 32.8159 33.5332C32.8159 34.4772 32.7427 35.4131 32.5962 36.3408C32.4497 37.2686 32.23 38.1556 31.937 39.002H35.9897C36.5757 37.1465 37.6662 35.6165 39.2612 34.4121C40.8563 33.2077 42.6792 32.6055 44.73 32.6055C45.4136 32.6055 46.0728 32.6706 46.7075 32.8008C47.3423 32.931 47.9526 33.1426 48.5386 33.4355ZM40.8237 16.4434C40.8237 16.3783 40.8481 16.3132 40.897 16.248C40.9458 16.1829 41.019 16.1504 41.1167 16.1504H41.8003C42.1909 16.1504 42.5327 16.0039 42.8257 15.7109C43.1187 15.418 43.2651 15.0762 43.2651 14.6855C43.2651 14.2949 43.1187 13.9531 42.8257 13.6602C42.5327 13.3672 42.1909 13.2207 41.8003 13.2207H41.1167C40.2378 13.2207 39.481 13.5381 38.8462 14.1729C38.2114 14.8076 37.894 15.5645 37.894 16.4434V18.3477H40.8237V16.4434Z" fill="white"/>
</g>
<defs>
<clipPath id="clip0_155_935">
<rect width="50" height="50" fill="white" transform="matrix(1 0 0 -1 0.97998 50.7695)"/>
</clipPath>
</defs>
</svg>
