<svg width="18" height="18" viewBox="0 0 18 18" fill="none" xmlns="http://www.w3.org/2000/svg">
<path d="M15.075 5.205C15.075 5.61 14.8575 5.9775 14.5125 6.165L13.2075 6.87L12.0975 7.4625L9.79499 8.7075C9.54749 8.8425 9.27749 8.91 8.99999 8.91C8.72249 8.91 8.45249 8.8425 8.20499 8.7075L3.48749 6.165C3.14249 5.9775 2.92499 5.61 2.92499 5.205C2.92499 4.8 3.14249 4.4325 3.48749 4.245L4.96499 3.45L6.14249 2.8125L8.20499 1.7025C8.69999 1.4325 9.29999 1.4325 9.79499 1.7025L14.5125 4.245C14.8575 4.4325 15.075 4.8 15.075 5.205Z" fill="#121212"/>
<path d="M7.42498 9.59261L3.03748 7.40261C2.69998 7.23011 2.30998 7.25261 1.98748 7.44761C1.66498 7.64261 1.47748 7.98761 1.47748 8.36261V12.5101C1.47748 13.2301 1.87498 13.8751 2.51998 14.1976L6.90748 16.3876C7.05748 16.4626 7.22248 16.5001 7.38748 16.5001C7.58248 16.5001 7.77748 16.4476 7.94998 16.3351C8.27248 16.1401 8.45998 15.7951 8.45998 15.4201V11.2726C8.46748 10.5601 8.06998 9.91511 7.42498 9.59261Z" fill="#121212"/>
<path d="M16.5225 8.36247V12.51C16.5225 13.2225 16.125 13.8675 15.48 14.19L11.0925 16.3875C10.9425 16.4625 10.7775 16.5 10.6125 16.5C10.4175 16.5 10.2225 16.4475 10.0425 16.335C9.72747 16.14 9.53247 15.795 9.53247 15.42V11.28C9.53247 10.56 9.92997 9.91497 10.575 9.59247L12.1875 8.78997L13.3125 8.22747L14.9625 7.40247C15.3 7.22997 15.69 7.24497 16.0125 7.44747C16.3275 7.64247 16.5225 7.98747 16.5225 8.36247Z" fill="#121212"/>
<path d="M13.2075 6.87L12.0975 7.4625L4.96503 3.45L6.14253 2.8125L13.0275 6.6975C13.1025 6.7425 13.1625 6.8025 13.2075 6.87Z" fill="#121212"/>
<path d="M13.3125 8.22754V9.93004C13.3125 10.2375 13.0575 10.4925 12.75 10.4925C12.4425 10.4925 12.1875 10.2375 12.1875 9.93004V8.79004L13.3125 8.22754Z" fill="#121212"/>
</svg>
